<svg xmlns="http://www.w3.org/2000/svg" viewBox="0 0 48 48"><defs><style>.cls-1{fill:#b5e08c;}.cls-2{fill:#9dcc6b;}.cls-3{fill:#dad7e5;}.cls-4{fill:#edebf2;}.cls-5{fill:#c6c3d8;}</style></defs><title>Processing information data</title><g id="Processing_information_data" data-name="Processing information data"><path class="cls-1" d="M42.42,37.77l1.72,1.72-7,.77c.46-4.2.28-2.6.77-7l1.34,1.34A18.62,18.62,0,0,0,11.22,10.46L11.61,7l-3.46.38A23,23,0,0,1,42.42,37.77Z"/><path class="cls-2" d="M40.63,39.88c-7.37,8.59-23.06,10.22-32.89.38A23,23,0,0,1,6.27,9.36L4.64,7.74l3.5-.39h0L11.61,7c-.47,4.21-.29,2.6-.78,7L9.38,12.48a18.62,18.62,0,0,0,1.45,24.69C18.7,45,31.4,43.94,37.55,36.76l-.38,3.5Z"/><path class="cls-3" d="M33,33a2,2,0,0,1-2,2H17a2,2,0,0,1-2-2V15a2,2,0,0,1,2-2c10.05,0,9.46-.07,10,.18s.18,0,5.41,5.23C33.23,19.23,33,19,33,33Z"/><path class="cls-4" d="M33,19.83C33,33.7,32.9,33,33,33A16,16,0,0,1,17,17V13c10.05,0,9.46-.07,10,.18s.18,0,5.41,5.23A2,2,0,0,1,33,19.83Z"/><path class="cls-5" d="M32.82,19H27V13.18c.45.21.18,0,5.41,5.23A2,2,0,0,1,32.82,19Z"/><path d="M43.73,37.66A24.1,24.1,0,0,0,41,7,23.83,23.83,0,0,0,7.72,6.39c-3.2.35-3.75.22-4,1s.18,1,1.23,2C-7.24,25.28,4.28,48,24,48a23.86,23.86,0,0,0,17.1-7.16c3.15-.35,3.7-.22,4-1S44.89,38.83,43.73,37.66Zm-6.12-5.31c-.78.27-.66.79-1,4A17.62,17.62,0,0,1,9.49,14c.7.7,1,1.12,1.68.88s.65-.77,1-3.91A17.6,17.6,0,0,1,39.11,33.05C38.59,32.53,38.27,32.12,37.61,32.35Zm.1,8.86A22,22,0,0,1,7,10,1,1,0,0,0,7,8.66c-.21-.22-.72-.11,3.51-.57l-.41,3.66a1,1,0,0,0-1.48.11C-1.6,24.76,7.74,43.62,24,43.62a19.5,19.5,0,0,0,12.26-4.3l-.09.83a1,1,0,0,0,.64,1A1.69,1.69,0,0,0,37.71,41.21Zm.59-2.08.41-3.68a1,1,0,0,0,1.39-.24A19.62,19.62,0,0,0,12.49,8.11l.11-1A1,1,0,0,0,11.36,6a21.85,21.85,0,0,1,28.2,2.46,22.1,22.1,0,0,1,2.06,28.73,1,1,0,0,0,.09,1.31C42.07,38.83,42.52,38.67,38.3,39.13Z"/><path d="M33.72,18.57c-.32-.68-.1-.37-5.43-5.69C27.16,11.75,26.58,12,17,12a3,3,0,0,0-3,3V33a3,3,0,0,0,3,3H31a3,3,0,0,0,3-3C34,18.81,34.12,19.41,33.72,18.57ZM30.59,18H28V15.41ZM31,34H17a1,1,0,0,1-1-1V15a1,1,0,0,1,1-1h9v5a1,1,0,0,0,1,1h5V33A1,1,0,0,1,31,34Z"/><path d="M25,21H19a1,1,0,0,0,0,2h6A1,1,0,0,0,25,21Z"/><path d="M25,25H19a1,1,0,0,0,0,2h6A1,1,0,0,0,25,25Z"/><path d="M25,29H19a1,1,0,0,0,0,2h6A1,1,0,0,0,25,29Z"/></g></svg>